ply
format ascii 1.0
comment File exported by Rhinoceros Version 4.0
element vertex 96
property float x
property float y
property float z
property float nx
property float ny
property float nz
property uchar red
property uchar green
property uchar blue
property uchar alpha
element face 72
property list uchar uint vertex_index
element material 1
property uchar ambient_red
property uchar ambient_green
property uchar ambient_blue
property uchar ambient_alpha
property uchar diffuse_red
property uchar diffuse_green
property uchar diffuse_blue
property uchar diffuse_alpha
property uchar emissive_red
property uchar emissive_green
property uchar emissive_blue
property uchar emissive_alpha
property uchar specular_red
property uchar specular_green
property uchar specular_blue
property uchar specular_alpha
property double shine
property double transparency
end_header
-10.389029 -10.072453 0.000000 0.000000 -1.000000 0.000000 255 255 255 0
-10.389029 -10.072453 20.177111 0.000000 -1.000000 0.000000 255 255 255 0
9.733401 -10.072453 0.000000 0.000000 -1.000000 0.000000 255 255 255 0
9.733401 -10.072453 20.177111 0.000000 -1.000000 0.000000 255 255 255 0
-0.327814 -10.072453 0.000000 0.000000 -1.000000 -0.000000 255 255 255 0
-0.327814 -10.072453 20.177111 0.000000 -1.000000 -0.000000 255 255 255 0
-10.389029 -10.072453 10.088555 0.000000 -1.000000 -0.000000 255 255 255 0
9.733401 -10.072453 10.088555 0.000000 -1.000000 -0.000000 255 255 255 0
9.733401 -10.072453 0.000000 1.000000 0.000000 0.000000 255 255 255 0
9.733401 -10.072453 20.177111 1.000000 0.000000 0.000000 255 255 255 0
9.733401 9.940616 0.000000 1.000000 0.000000 0.000000 255 255 255 0
9.733401 9.940616 20.177111 1.000000 0.000000 0.000000 255 255 255 0
9.733401 -0.065919 0.000000 1.000000 0.000000 0.000000 255 255 255 0
9.733401 -0.065919 20.177111 1.000000 0.000000 0.000000 255 255 255 0
9.733401 -10.072453 10.088555 1.000000 0.000000 0.000000 255 255 255 0
9.733401 9.940616 10.088555 1.000000 0.000000 0.000000 255 255 255 0
9.733401 9.940616 0.000000 0.000000 1.000000 -0.000000 255 255 255 0
9.733401 9.940616 20.177111 0.000000 1.000000 -0.000000 255 255 255 0
-10.389029 9.940616 0.000000 0.000000 1.000000 -0.000000 255 255 255 0
-10.389029 9.940616 20.177111 0.000000 1.000000 -0.000000 255 255 255 0
-0.327814 9.940616 0.000000 -0.000000 1.000000 0.000000 255 255 255 0
-0.327814 9.940616 20.177111 -0.000000 1.000000 0.000000 255 255 255 0
9.733401 9.940616 10.088555 -0.000000 1.000000 0.000000 255 255 255 0
-10.389029 9.940616 10.088555 -0.000000 1.000000 0.000000 255 255 255 0
-10.389029 9.940616 0.000000 -1.000000 0.000000 0.000000 255 255 255 0
-10.389029 9.940616 20.177111 -1.000000 0.000000 0.000000 255 255 255 0
-10.389029 -10.072453 0.000000 -1.000000 0.000000 0.000000 255 255 255 0
-10.389029 -10.072453 20.177111 -1.000000 0.000000 0.000000 255 255 255 0
-10.389029 -0.065919 0.000000 -1.000000 0.000000 -0.000000 255 255 255 0
-10.389029 -0.065919 20.177111 -1.000000 0.000000 -0.000000 255 255 255 0
-10.389029 -10.072453 10.088555 -1.000000 0.000000 -0.000000 255 255 255 0
-10.389029 9.940616 10.088555 -1.000000 0.000000 -0.000000 255 255 255 0
-10.389029 -10.072453 0.000000 0.000000 0.000000 -1.000000 255 255 255 0
9.733401 -10.072453 0.000000 0.000000 0.000000 -1.000000 255 255 255 0
-10.389029 9.940616 0.000000 0.000000 0.000000 -1.000000 255 255 255 0
9.733401 9.940616 0.000000 0.000000 0.000000 -1.000000 255 255 255 0
-0.327814 -10.072453 0.000000 0.000000 0.000000 -1.000000 255 255 255 0
9.733401 -0.065919 0.000000 0.000000 0.000000 -1.000000 255 255 255 0
-0.327814 9.940616 0.000000 0.000000 0.000000 -1.000000 255 255 255 0
-10.389029 -0.065919 0.000000 0.000000 0.000000 -1.000000 255 255 255 0
-10.389029 -10.072453 20.177111 0.000000 0.000000 1.000000 255 255 255 0
-10.389029 9.940616 20.177111 0.000000 0.000000 1.000000 255 255 255 0
9.733401 -10.072453 20.177111 0.000000 0.000000 1.000000 255 255 255 0
9.733401 9.940616 20.177111 0.000000 0.000000 1.000000 255 255 255 0
-0.327814 -10.072453 20.177111 0.000000 0.000000 1.000000 255 255 255 0
9.733401 -0.065919 20.177111 0.000000 0.000000 1.000000 255 255 255 0
-0.327814 9.940616 20.177111 0.000000 0.000000 1.000000 255 255 255 0
-10.389029 -0.065919 20.177111 0.000000 0.000000 1.000000 255 255 255 0
-10.113163 -10.159054 0.000000 0.000000 -1.000000 0.000000 255 255 255 0
-10.113163 -10.159054 20.177111 0.000000 -1.000000 0.000000 255 255 255 0
10.009267 -10.159054 0.000000 0.000000 -1.000000 0.000000 255 255 255 0
10.009267 -10.159054 20.177111 0.000000 -1.000000 0.000000 255 255 255 0
-0.051949 -10.159054 0.000000 -0.000000 -1.000000 0.000000 255 255 255 0
-0.051949 -10.159054 20.177111 -0.000000 -1.000000 0.000000 255 255 255 0
-10.113163 -10.159054 10.088555 -0.000000 -1.000000 0.000000 255 255 255 0
10.009267 -10.159054 10.088555 -0.000000 -1.000000 0.000000 255 255 255 0
10.009267 -10.159054 0.000000 1.000000 0.000000 0.000000 255 255 255 0
10.009267 -10.159054 20.177111 1.000000 0.000000 0.000000 255 255 255 0
10.009267 9.854015 0.000000 1.000000 0.000000 0.000000 255 255 255 0
10.009267 9.854015 20.177111 1.000000 0.000000 0.000000 255 255 255 0
10.009267 -0.152519 0.000000 1.000000 -0.000000 0.000000 255 255 255 0
10.009267 -0.152519 20.177111 1.000000 -0.000000 0.000000 255 255 255 0
10.009267 -10.159054 10.088555 1.000000 -0.000000 0.000000 255 255 255 0
10.009267 9.854015 10.088555 1.000000 -0.000000 0.000000 255 255 255 0
10.009267 9.854015 0.000000 0.000000 1.000000 0.000000 255 255 255 0
10.009267 9.854015 20.177111 0.000000 1.000000 0.000000 255 255 255 0
-10.113163 9.854015 0.000000 0.000000 1.000000 0.000000 255 255 255 0
-10.113163 9.854015 20.177111 0.000000 1.000000 0.000000 255 255 255 0
-0.051949 9.854015 0.000000 0.000000 1.000000 0.000000 255 255 255 0
-0.051949 9.854015 20.177111 0.000000 1.000000 0.000000 255 255 255 0
10.009267 9.854015 10.088555 0.000000 1.000000 0.000000 255 255 255 0
-10.113163 9.854015 10.088555 0.000000 1.000000 0.000000 255 255 255 0
-10.113163 9.854015 0.000000 -1.000000 0.000000 0.000000 255 255 255 0
-10.113163 9.854015 20.177111 -1.000000 0.000000 0.000000 255 255 255 0
-10.113163 -10.159054 0.000000 -1.000000 0.000000 0.000000 255 255 255 0
-10.113163 -10.159054 20.177111 -1.000000 0.000000 0.000000 255 255 255 0
-10.113163 -0.152519 0.000000 -1.000000 -0.000000 0.000000 255 255 255 0
-10.113163 -0.152519 20.177111 -1.000000 -0.000000 0.000000 255 255 255 0
-10.113163 -10.159054 10.088555 -1.000000 -0.000000 0.000000 255 255 255 0
-10.113163 9.854015 10.088555 -1.000000 -0.000000 0.000000 255 255 255 0
-10.113163 -10.159054 0.000000 0.000000 0.000000 -1.000000 255 255 255 0
10.009267 -10.159054 0.000000 0.000000 0.000000 -1.000000 255 255 255 0
-10.113163 9.854015 0.000000 0.000000 0.000000 -1.000000 255 255 255 0
10.009267 9.854015 0.000000 0.000000 0.000000 -1.000000 255 255 255 0
-0.051949 -10.159054 0.000000 0.000000 0.000000 -1.000000 255 255 255 0
10.009267 -0.152519 0.000000 0.000000 0.000000 -1.000000 255 255 255 0
-0.051949 9.854015 0.000000 0.000000 0.000000 -1.000000 255 255 255 0
-10.113163 -0.152519 0.000000 0.000000 0.000000 -1.000000 255 255 255 0
-10.113163 -10.159054 20.177111 0.000000 0.000000 1.000000 255 255 255 0
-10.113163 9.854015 20.177111 0.000000 0.000000 1.000000 255 255 255 0
10.009267 -10.159054 20.177111 0.000000 0.000000 1.000000 255 255 255 0
10.009267 9.854015 20.177111 0.000000 0.000000 1.000000 255 255 255 0
-0.051949 -10.159054 20.177111 0.000000 0.000000 1.000000 255 255 255 0
10.009267 -0.152519 20.177111 0.000000 0.000000 1.000000 255 255 255 0
-0.051949 9.854015 20.177111 0.000000 0.000000 1.000000 255 255 255 0
-10.113163 -0.152519 20.177111 0.000000 0.000000 1.000000 255 255 255 0
3 0 4 6
3 4 2 7
3 3 5 7
3 5 1 6
3 6 4 7
3 7 5 6
3 8 12 14
3 12 10 15
3 11 13 15
3 13 9 14
3 14 12 15
3 15 13 14
3 16 20 22
3 20 18 23
3 19 21 23
3 21 17 22
3 22 20 23
3 23 21 22
3 24 28 31
3 28 26 30
3 27 29 30
3 29 25 31
3 31 28 30
3 30 29 31
3 33 36 37
3 36 32 39
3 35 37 38
3 34 38 39
3 37 36 38
3 36 39 38
3 40 44 47
3 44 42 45
3 45 43 46
3 46 41 47
3 47 44 46
3 44 45 46
3 48 52 54
3 52 50 55
3 51 53 55
3 53 49 54
3 54 52 55
3 55 53 54
3 56 60 62
3 60 58 63
3 59 61 63
3 61 57 62
3 62 60 63
3 63 61 62
3 64 68 70
3 68 66 71
3 67 69 71
3 69 65 70
3 70 68 71
3 71 69 70
3 72 76 79
3 76 74 78
3 75 77 78
3 77 73 79
3 79 76 78
3 78 77 79
3 81 84 85
3 84 80 87
3 83 85 86
3 82 86 87
3 85 84 86
3 84 87 86
3 88 92 95
3 92 90 93
3 93 91 94
3 94 89 95
3 95 92 94
3 92 93 94
0 0 0 0 255 255 255 0 0 0 0 0 255 255 255 0 0.000000 0.000000
