# Alias OBJ Model File
# Exported from SketchUp, (c) 2000-2006 Google, Inc.
# File units = centimeters

mtllib ground.mtl

g Mesh1 Model

usemtl FrontColor
v -421.338 1.44382e-013 -998.243
vt 165.881 393.009
vn 0 -1 0
v -288.885 5.77529e-013 -791.53
vt 113.734 311.626
v -421.338 1.44382e-013 1.2469
vt 165.881 -0.490905
f 1/1/1 2/2/1 3/3/1

v -282.874 5.77529e-013 -819.231
vt 111.368 322.532
f 2/2/1 1/1/1 4/4/1

usemtl Metal_Steel_Textured_White
vt 27.6469 -0.0818174
vn 0 1 0
vt 18.9557 51.9376
vt 27.6469 65.5015
f 3/5/2 2/6/2 1/7/2

usemtl FrontColor
v -287.521 5.77529e-013 -763.216
vt 113.197 300.479
f 5/8/1 3/3/1 2/2/1

v -278.876 5.77529e-013 -736.22
vt 109.794 289.851
f 6/9/1 3/3/1 5/8/1

v -263.539 5.77529e-013 -712.382
vt 103.755 280.465
f 7/10/1 3/3/1 6/9/1

v -242.554 5.77529e-013 -693.325
vt 95.4936 272.963
f 8/11/1 3/3/1 7/10/1

v 766.747 1.44382e-013 1.2469
vt -301.869 -0.490905
f 3/3/1 8/11/1 9/12/1

usemtl Metal_Steel_Textured_White
vt -50.3115 -0.0818174
vt 15.9156 45.4938
f 9/13/2 8/14/2 3/5/2

usemtl FrontColor
v -217.352 5.77529e-013 -680.349
vt 85.5716 267.854
f 9/12/1 8/11/1 10/15/1

usemtl Metal_Steel_Textured_White
vt 14.2619 44.6423
f 10/16/2 8/14/2 9/13/2

usemtl FrontColor
v -242.554 106.045 -693.325
vt 209.853 41.75
vn 0.569895 0 -0.821717
vt 198.693 2.27374e-013
vn 0.337801 0 -0.941218
vt 209.853 2.27374e-013
f 11/17/3 10/18/4 8/19/3

v -217.352 106.045 -680.349
vt 198.693 41.75
f 10/18/4 11/17/3 12/20/4

usemtl BackColor
vn -0.569895 0 0.821717
vn -0.337801 0 0.941218
f 8/19/5 10/18/6 11/17/5

f 12/20/6 11/17/5 10/18/6

usemtl FrontColor
v -227.003 106.045 -880.756
vt 89.3712 346.754
f 11/11/1 13/21/1 12/15/1

v -250.841 106.045 -865.418
vt 98.7564 340.716
f 11/11/1 14/22/1 13/21/1

v -263.539 106.045 -712.382
f 15/10/1 14/22/1 11/11/1

v -269.898 106.045 -844.433
vt 106.259 332.454
f 15/10/1 16/23/1 14/22/1

v -278.876 106.045 -736.22
f 17/9/1 16/23/1 15/10/1

v -282.874 106.045 -819.231
f 17/9/1 18/4/1 16/23/1

v -287.521 106.045 -763.216
f 19/8/1 18/4/1 17/9/1

v -288.885 106.045 -791.53
f 18/4/1 19/8/1 20/2/1

usemtl BackColor
f 20/2/2 19/8/2 18/4/2

usemtl FrontColor
vt 305.576 41.75
vn 0.984019 0 -0.178065
vt 316.736 2.27374e-013
vn 0.996576 0 0.0826853
vt 316.736 41.75
f 19/24/7 2/25/8 20/26/8

vt 305.576 2.27374e-013
f 2/25/8 19/24/7 5/27/7

usemtl BackColor
vn -0.984019 0 0.178065
vn -0.996576 0 -0.0826853
f 5/27/9 19/24/9 2/25/10

usemtl FrontColor
vt 309.527 41.75
vn 0.904403 0 -0.42668
vt 320.687 2.27374e-013
vt 320.687 41.75
f 17/28/11 5/29/7 19/30/7

vt 309.527 2.27374e-013
f 5/29/7 17/28/11 6/31/11

usemtl BackColor
vn -0.904403 0 0.42668
f 6/31/12 17/28/12 5/29/9

usemtl FrontColor
vt 292.003 41.75
vn 0.763153 0 -0.646218
vt 303.163 2.27374e-013
vt 303.163 41.75
f 15/32/13 6/33/11 17/34/11

vt 292.003 2.27374e-013
f 6/33/11 15/32/13 7/35/13

usemtl BackColor
vn -0.763153 0 0.646218
f 7/35/14 15/32/14 6/33/12

usemtl FrontColor
vt 265.36 41.75
vt 254.2 2.27374e-013
vt 265.36 2.27374e-013
f 15/36/13 8/37/3 7/38/13

vt 254.2 41.75
f 8/37/3 15/36/13 11/39/3

usemtl BackColor
f 7/38/14 8/37/5 15/36/14

usemtl Metal_Steel_Textured_White
vt 17.2926 46.7442
f 7/40/2 3/5/2 8/14/2

vt 18.299 48.3084
f 6/41/2 3/5/2 7/40/2

vt 18.8662 50.0798
f 5/42/2 3/5/2 6/41/2

f 2/6/2 3/5/2 5/42/2

usemtl BackColor
f 11/39/5 15/36/14 8/37/5

f 11/11/2 14/22/2 15/10/2

f 13/21/2 14/22/2 11/11/2

usemtl FrontColor
v -250.841 5.77529e-013 -865.418
vt 101.303 2.27374e-013
vn 0.646218 0 0.763153
vt 112.462 41.75
vn 0.42668 0 0.904403
vt 101.303 41.75
f 21/43/15 13/44/16 14/45/15

v -227.003 5.77529e-013 -880.756
vt 112.462 2.27374e-013
f 13/44/16 21/43/15 22/46/16

usemtl BackColor
vn -0.42668 0 -0.904403
vn -0.646218 0 -0.763153
f 22/46/17 21/43/18 13/44/17

usemtl FrontColor
f 21/22/1 1/1/1 22/21/1

v -269.898 5.77529e-013 -844.433
f 23/23/1 1/1/1 21/22/1

f 4/4/1 1/1/1 23/23/1

usemtl Metal_Steel_Textured_White
vt 18.5613 53.7553
f 4/47/2 1/7/2 2/6/2

vt 17.7098 55.409
f 23/48/2 1/7/2 4/47/2

vt 16.4594 56.786
f 21/49/2 1/7/2 23/48/2

vt 14.8952 57.7924
f 22/50/2 1/7/2 21/49/2

usemtl FrontColor
v -200.007 5.77529e-013 -889.401
vt 78.7429 350.158
f 22/21/1 1/1/1 24/51/1

usemtl Metal_Steel_Textured_White
vt 13.1238 58.3596
f 24/52/2 1/7/2 22/50/2

usemtl FrontColor
v 766.747 1.44382e-013 -998.243
vt -301.869 393.009
f 24/51/1 1/1/1 25/53/1

usemtl Metal_Steel_Textured_White
vt -50.3115 65.5015
f 25/54/2 1/7/2 24/52/2

usemtl FrontColor
v -171.693 5.77529e-013 -890.765
vt 67.5958 350.695
f 24/51/1 25/53/1 26/55/1

usemtl Metal_Steel_Textured_White
vt 11.266 58.4491
f 26/56/2 25/54/2 24/52/2

usemtl FrontColor
v -143.992 5.77529e-013 -884.754
vt 56.6896 348.328
f 26/55/1 25/53/1 27/57/1

usemtl Metal_Steel_Textured_White
vt 9.44827 58.0547
f 27/58/2 25/54/2 26/56/2

usemtl FrontColor
v -118.79 5.77529e-013 -871.778
vt 46.7676 343.22
f 27/57/1 25/53/1 28/59/1

usemtl Metal_Steel_Textured_White
vt 7.7946 57.2033
f 28/60/2 25/54/2 27/58/2

usemtl FrontColor
v -97.8048 5.77529e-013 -852.721
vt 38.5058 335.717
f 28/59/1 25/53/1 29/61/1

usemtl Metal_Steel_Textured_White
vt 6.41764 55.9528
f 29/62/2 25/54/2 28/60/2

usemtl FrontColor
v -82.4672 5.77529e-013 -828.882
vt 32.4674 326.332
f 29/61/1 25/53/1 30/63/1

usemtl Metal_Steel_Textured_White
vt 5.41123 54.3886
f 30/64/2 25/54/2 29/62/2

usemtl FrontColor
v -73.8221 5.77529e-013 -801.887
vt 29.0638 315.703
f 30/63/1 25/53/1 31/65/1

usemtl Metal_Steel_Textured_White
vt 4.84397 52.6172
f 31/66/2 25/54/2 30/64/2

usemtl FrontColor
v -72.4586 5.77529e-013 -773.573
vt 28.527 304.556
f 31/65/1 25/53/1 32/67/1

usemtl Metal_Steel_Textured_White
vt 4.7545 50.7594
f 32/68/2 25/54/2 31/66/2

usemtl FrontColor
f 9/12/1 32/67/1 25/53/1

v -78.4696 5.77529e-013 -745.871
vt 30.8935 293.65
f 9/12/1 33/69/1 32/67/1

v -91.4456 5.77529e-013 -720.669
vt 36.0022 283.728
f 9/12/1 34/70/1 33/69/1

v -110.502 5.77529e-013 -699.684
vt 43.5048 275.466
f 9/12/1 35/71/1 34/70/1

v -134.341 5.77529e-013 -684.347
vt 52.89 269.428
f 9/12/1 36/72/1 35/71/1

v -161.337 5.77529e-013 -675.702
vt 63.5183 266.024
f 9/12/1 37/73/1 36/72/1

v -189.65 5.77529e-013 -674.338
vt 74.6654 265.487
f 9/12/1 38/74/1 37/73/1

f 9/12/1 10/15/1 38/74/1

usemtl Metal_Steel_Textured_White
vt 12.4442 44.2479
f 38/75/2 10/16/2 9/13/2

usemtl FrontColor
vt 140.426 41.75
vt 129.266 2.27374e-013
vn 0.0826853 0 -0.996576
vt 140.426 2.27374e-013
f 12/76/4 38/77/19 10/78/4

v -189.65 106.045 -674.338
vt 129.266 41.75
f 38/77/19 12/76/4 39/79/19

usemtl BackColor
vn -0.0826853 0 0.996576
f 10/78/6 38/77/20 12/76/6

f 39/79/20 12/76/6 38/77/20

usemtl FrontColor
v -200.007 106.045 -889.401
f 12/15/1 40/51/1 39/74/1

f 12/15/1 13/21/1 40/51/1

usemtl BackColor
f 12/15/2 13/21/2 11/11/2

f 40/51/2 13/21/2 12/15/2

usemtl FrontColor
vt 20.6404 2.27374e-013
vt 31.8003 41.75
vn 0.178065 0 0.984019
vt 20.6404 41.75
f 22/80/16 40/81/21 13/82/16

vt 31.8003 2.27374e-013
f 40/81/21 22/80/16 24/83/21

usemtl BackColor
vn -0.178065 0 -0.984019
f 24/83/22 22/80/17 40/81/22

f 13/82/17 40/81/22 22/80/17

usemtl FrontColor
vt -61.8087 2.27374e-013
v -171.693 106.045 -890.765
vt -50.6487 41.75
vn -0.0826853 0 0.996576
vt -61.8087 41.75
f 24/84/21 41/85/23 40/86/21

vt -50.6487 2.27374e-013
f 41/85/23 24/84/21 26/87/23

usemtl BackColor
vn 0.0826853 0 -0.996576
f 26/87/24 24/84/22 41/85/24

f 40/86/22 41/85/24 24/84/22

usemtl FrontColor
f 39/74/1 40/51/1 41/55/1

usemtl BackColor
f 39/74/2 40/51/2 12/15/2

f 41/55/2 40/51/2 39/74/2

usemtl FrontColor
v -161.337 106.045 -675.702
f 39/74/1 41/55/1 42/73/1

usemtl BackColor
f 42/73/2 41/55/2 39/74/2

usemtl FrontColor
v -143.992 106.045 -884.754
f 42/73/1 41/55/1 43/57/1

usemtl BackColor
f 43/57/2 41/55/2 42/73/2

usemtl FrontColor
vt -140.426 2.27374e-013
vt -129.266 41.75
vn -0.337801 0 0.941218
vt -140.426 41.75
f 26/88/23 43/89/25 41/90/23

vt -129.266 2.27374e-013
f 43/89/25 26/88/23 27/91/25

usemtl BackColor
vn 0.337801 0 -0.941218
f 27/91/26 26/88/24 43/89/26

f 41/90/24 43/89/26 26/88/24

usemtl FrontColor
vt -209.853 2.27374e-013
v -118.79 106.045 -871.778
vt -198.693 41.75
vt -209.853 41.75
f 27/92/25 44/93/5 43/94/25

vt -198.693 2.27374e-013
f 44/93/5 27/92/25 28/95/5

usemtl BackColor
f 28/95/3 27/92/26 44/93/3

f 43/94/26 44/93/3 27/92/26

usemtl FrontColor
v -134.341 106.045 -684.347
f 45/72/1 43/57/1 44/59/1

f 42/73/1 43/57/1 45/72/1

usemtl BackColor
f 45/72/2 43/57/2 42/73/2

f 44/59/2 43/57/2 45/72/2

usemtl FrontColor
v -110.502 106.045 -699.684
f 45/72/1 44/59/1 46/71/1

usemtl BackColor
f 46/71/2 44/59/2 45/72/2

usemtl FrontColor
v -97.8048 106.045 -852.721
f 46/71/1 44/59/1 47/61/1

usemtl BackColor
f 47/61/2 44/59/2 46/71/2

usemtl FrontColor
vt -265.36 2.27374e-013
vt -254.2 41.75
vn -0.763153 0 0.646218
vt -265.36 41.75
f 28/96/5 47/97/27 44/98/5

vt -254.2 2.27374e-013
f 47/97/27 28/96/5 29/99/27

usemtl BackColor
vn 0.763153 0 -0.646218
f 29/99/28 28/96/3 47/97/28

f 44/98/3 47/97/28 28/96/3

usemtl FrontColor
vt -292.003 2.27374e-013
vn -0.904403 0 0.42668
vt -303.163 41.75
vt -303.163 2.27374e-013
f 30/100/29 47/101/27 29/102/27

v -82.4672 106.045 -828.882
vt -292.003 41.75
f 47/101/27 30/100/29 48/103/29

usemtl BackColor
vn 0.904403 0 -0.42668
f 48/103/30 30/100/30 47/101/28

usemtl FrontColor
vt -309.527 2.27374e-013
vn -0.984019 0 0.178065
vt -320.687 41.75
vt -320.687 2.27374e-013
f 31/104/31 48/105/29 30/106/29

v -73.8221 106.045 -801.887
vt -309.527 41.75
f 48/105/29 31/104/31 49/107/31

usemtl BackColor
vn 0.984019 0 -0.178065
f 49/107/32 31/104/32 48/105/30

usemtl FrontColor
vt -305.576 2.27374e-013
vn -0.996576 0 -0.0826853
vt -316.736 41.75
vt -316.736 2.27374e-013
f 32/108/33 49/109/31 31/110/31

v -72.4586 106.045 -773.573
vt -305.576 41.75
f 49/109/31 32/108/33 50/111/33

usemtl BackColor
vn 0.996576 0 0.0826853
f 50/111/34 32/108/34 49/109/32

usemtl FrontColor
vt -280.421 2.27374e-013
vn -0.941218 0 -0.337801
vt -291.581 41.75
vt -291.581 2.27374e-013
f 33/112/35 50/113/33 32/114/33

v -78.4696 106.045 -745.871
vt -280.421 41.75
f 50/113/33 33/112/35 51/115/35

usemtl BackColor
vn 0.941218 0 0.337801
f 51/115/36 33/112/36 50/113/34

usemtl FrontColor
vt -235.775 2.27374e-013
vn -0.821717 0 -0.569895
vt -246.935 41.75
vt -246.935 2.27374e-013
f 34/116/37 51/117/35 33/118/35

v -91.4456 106.045 -720.669
vt -235.775 41.75
f 51/117/35 34/116/37 52/119/37

usemtl BackColor
vn 0.821717 0 0.569895
f 52/119/38 34/116/38 51/117/36

usemtl FrontColor
vt -174.681 2.27374e-013
vn -0.646218 0 -0.763153
vt -185.841 41.75
vt -185.841 2.27374e-013
f 35/120/39 52/121/37 34/122/37

vt -174.681 41.75
f 52/121/37 35/120/39 46/123/39

usemtl BackColor
vn 0.646218 0 0.763153
f 46/123/40 35/120/40 52/121/38

usemtl FrontColor
vt -112.462 2.27374e-013
vt -101.303 41.75
vn -0.42668 0 -0.904403
vt -112.462 41.75
f 35/124/39 45/125/41 46/126/39

vt -101.303 2.27374e-013
f 45/125/41 35/124/39 36/127/41

usemtl BackColor
vn 0.42668 0 0.904403
f 36/127/42 35/124/40 45/125/42

usemtl Metal_Steel_Textured_White
vt 7.2508 45.9111
vt 8.815 44.9046
f 35/128/2 36/129/2 9/13/2

vt 10.5864 44.3374
f 36/129/2 37/130/2 9/13/2

usemtl FrontColor
vt -20.6404 41.75
vn -0.178065 0 -0.984019
vt -31.8003 2.27374e-013
vt -20.6404 2.27374e-013
f 42/131/43 36/132/41 37/133/43

vt -31.8003 41.75
f 36/132/41 42/131/43 45/134/41

usemtl BackColor
vn 0.178065 0 0.984019
f 37/133/44 36/132/42 42/131/44

f 45/134/42 42/131/44 36/132/42

usemtl FrontColor
vt 50.6487 2.27374e-013
vt 61.8087 41.75
vt 50.6487 41.75
f 37/135/43 39/136/19 42/137/43

vt 61.8087 2.27374e-013
f 39/136/19 37/135/43 38/138/19

usemtl BackColor
f 38/138/20 37/135/44 39/136/20

usemtl Metal_Steel_Textured_White
f 37/130/2 38/75/2 9/13/2

usemtl BackColor
f 42/137/44 39/136/20 37/135/44

usemtl Metal_Steel_Textured_White
vt 6.00037 47.288
f 34/139/2 35/128/2 9/13/2

usemtl BackColor
f 34/122/38 52/121/38 35/120/40

usemtl Metal_Steel_Textured_White
vt 5.14892 48.9417
f 33/140/2 34/139/2 9/13/2

usemtl BackColor
f 33/118/36 51/117/36 34/116/38

usemtl Metal_Steel_Textured_White
f 32/68/2 33/140/2 9/13/2

usemtl BackColor
f 32/114/34 50/113/34 33/112/36

usemtl Metal_Steel_Textured_White
f 25/54/2 32/68/2 9/13/2

usemtl BackColor
f 46/126/40 45/125/42 35/124/40

usemtl FrontColor
f 46/71/1 47/61/1 52/70/1

usemtl BackColor
f 52/70/2 47/61/2 46/71/2

usemtl FrontColor
f 52/70/1 47/61/1 48/63/1

usemtl BackColor
f 48/63/2 47/61/2 52/70/2

usemtl FrontColor
f 52/70/1 48/63/1 51/69/1

usemtl BackColor
f 51/69/2 48/63/2 52/70/2

usemtl FrontColor
f 51/69/1 48/63/1 49/65/1

usemtl BackColor
f 49/65/2 48/63/2 51/69/2

usemtl FrontColor
f 51/69/1 49/65/1 50/67/1

usemtl BackColor
f 50/67/2 49/65/2 51/69/2

f 31/110/32 49/109/32 32/108/34

f 30/106/30 48/105/30 31/104/32

f 29/102/28 47/101/28 30/100/30

usemtl FrontColor
vt 185.841 2.27374e-013
vt 174.681 41.75
vn 0.821717 0 0.569895
vt 174.681 2.27374e-013
f 21/141/15 16/142/45 23/143/45

vt 185.841 41.75
f 16/142/45 21/141/15 14/144/15

usemtl BackColor
vn -0.821717 0 -0.569895
f 23/143/46 16/142/46 21/141/18

usemtl FrontColor
vt 235.775 41.75
vn 0.941218 0 0.337801
vt 246.935 2.27374e-013
vt 246.935 41.75
f 18/145/47 23/146/45 16/147/45

vt 235.775 2.27374e-013
f 23/146/45 18/145/47 4/148/47

usemtl BackColor
vn -0.941218 0 -0.337801
f 4/148/48 18/145/48 23/146/46

usemtl FrontColor
vt 280.421 41.75
vt 291.581 2.27374e-013
vt 291.581 41.75
f 20/149/8 4/150/47 18/151/47

vt 280.421 2.27374e-013
f 4/150/47 20/149/8 2/152/8

usemtl BackColor
f 2/152/10 20/149/10 4/150/48

f 20/26/10 2/25/10 19/24/9

f 18/151/48 4/150/48 20/149/10

f 16/147/46 23/146/46 18/145/48

f 16/23/2 18/4/2 17/9/2

f 17/9/2 18/4/2 19/8/2

f 19/30/9 5/29/9 17/28/12

f 15/10/2 16/23/2 17/9/2

f 14/22/2 16/23/2 15/10/2

f 14/144/18 21/141/18 16/142/46

f 14/45/18 13/44/17 21/43/18

f 17/34/12 6/33/12 15/32/14

g Mesh2 Model

l 3 1

l 9 3

l 25 9

l 1 25

g Mesh3 Model

l 36 37

l 35 36

l 34 35

l 33 34

l 32 33

l 31 32

l 30 31

l 29 30

l 28 29

l 27 28

l 26 27

l 24 26

l 22 24

l 21 22

l 23 21

l 4 23

l 2 4

l 5 2

l 6 5

l 7 6

l 8 7

l 10 8

l 38 10

l 37 38

g Mesh4 Model

l 45 42

l 46 45

l 52 46

l 51 52

l 50 51

l 49 50

l 48 49

l 47 48

l 44 47

l 43 44

l 41 43

l 40 41

l 13 40

l 14 13

l 16 14

l 18 16

l 20 18

l 19 20

l 17 19

l 15 17

l 11 15

l 12 11

l 39 12

l 42 39

